HIERARCHY
ROOT Hips
{
	OFFSET 0.00000 0.00000 0.00000
	CHANNELS 6 Xposition Yposition Zposition Zrotation Yrotation Xrotation 
	JOINT LHipJoint
	{
		OFFSET 0 0 0
		CHANNELS 3 Zrotation Yrotation Xrotation
		JOINT LeftUpLeg
		{
			OFFSET 1.29432 -1.88279 0.59910
			CHANNELS 3 Zrotation Yrotation Xrotation
			JOINT LeftLeg
			{
				OFFSET 2.63039 -7.22694 0.00000
				CHANNELS 3 Zrotation Yrotation Xrotation
				JOINT LeftFoot
				{
					OFFSET 2.70674 -7.43672 0.00000
					CHANNELS 3 Zrotation Yrotation Xrotation
					JOINT LeftToeBase
					{
						OFFSET 0.15066 -0.41394 2.09027
						CHANNELS 3 Zrotation Yrotation Xrotation
						End Site
						{
							OFFSET 0.00000 -0.00000 1.07518
						}
					}
				}
			}
		}
	}
	JOINT RHipJoint
	{
		OFFSET 0 0 0
		CHANNELS 3 Zrotation Yrotation Xrotation
		JOINT RightUpLeg
		{
			OFFSET -1.37068 -1.88279 0.59910
			CHANNELS 3 Zrotation Yrotation Xrotation
			JOINT RightLeg
			{
				OFFSET -2.57023 -7.06166 0.00000
				CHANNELS 3 Zrotation Yrotation Xrotation
				JOINT RightFoot
				{
					OFFSET -2.76461 -7.59570 0.00000
					CHANNELS 3 Zrotation Yrotation Xrotation
					JOINT RightToeBase
					{
						OFFSET -0.24175 -0.64785 2.19719
						CHANNELS 3 Zrotation Yrotation Xrotation
						End Site
						{
							OFFSET -0.00000 -0.00000 1.14803
						}
					}
				}
			}
		}
	}
	JOINT LowerBack
	{
		OFFSET 0 0 0
		CHANNELS 3 Zrotation Yrotation Xrotation
		JOINT Spine
		{
			OFFSET -0.03138 2.03983 -0.23106
			CHANNELS 3 Zrotation Yrotation Xrotation
			JOINT Spine1
			{
				OFFSET -0.00325 2.06238 -0.06878
				CHANNELS 3 Zrotation Yrotation Xrotation
				JOINT Neck
				{
					OFFSET 0 0 0
					CHANNELS 3 Zrotation Yrotation Xrotation
					JOINT Neck1
					{
						OFFSET -0.00002 1.75318 0.18090
						CHANNELS 3 Zrotation Yrotation Xrotation
						JOINT Head
						{
							OFFSET 0.08806 1.75856 -0.25387
							CHANNELS 3 Zrotation Yrotation Xrotation
							End Site
							{
								OFFSET 0.02554 1.78597 -0.10684
							}
						}
					}
				}
				JOINT LeftShoulder
				{
					OFFSET 0 0 0
					CHANNELS 3 Zrotation Yrotation Xrotation
					JOINT LeftArm
					{
						OFFSET 3.09657 1.33597 -0.04414
						CHANNELS 3 Zrotation Yrotation Xrotation
						JOINT LeftForeArm
						{
							OFFSET 5.34298 -0.00000 -0.00000
							CHANNELS 3 Zrotation Yrotation Xrotation
							JOINT LeftHand
							{
								OFFSET 3.67262 -0.00000 -0.00000
								CHANNELS 3 Zrotation Yrotation Xrotation
								JOINT LeftFingerBase
								{
									OFFSET 0 0 0
									CHANNELS 3 Zrotation Yrotation Xrotation
									JOINT LeftHandIndex1
									{
										OFFSET 0.59930 -0.00000 -0.00000
										CHANNELS 3 Zrotation Yrotation Xrotation
										End Site
										{
											OFFSET 0.48317 -0.00000 -0.00000
										}
									}
								}
								JOINT LThumb
								{
									OFFSET 0 0 0
									CHANNELS 3 Zrotation Yrotation Xrotation
									End Site
									{
										OFFSET 0.49055 -0.00000 0.49055
									}
								}
							}
						}
					}
				}
				JOINT RightShoulder
				{
					OFFSET 0 0 0
					CHANNELS 3 Zrotation Yrotation Xrotation
					JOINT RightArm
					{
						OFFSET -3.16460 1.32273 -0.23382
						CHANNELS 3 Zrotation Yrotation Xrotation
						JOINT RightForeArm
						{
							OFFSET -5.54967 -0.01834 0.03348
							CHANNELS 3 Zrotation Yrotation Xrotation
							JOINT RightHand
							{
								OFFSET -3.69401 -0.00000 0.00000
								CHANNELS 3 Zrotation Yrotation Xrotation
								JOINT RightFingerBase
								{
									OFFSET 0 0 0
									CHANNELS 3 Zrotation Yrotation Xrotation
									JOINT RightHandIndex1
									{
										OFFSET -0.63811 -0.00000 0.00000
										CHANNELS 3 Zrotation Yrotation Xrotation
										End Site
										{
											OFFSET -0.51446 -0.00000 0.00000
										}
									}
								}
								JOINT RThumb
								{
									OFFSET 0 0 0
									CHANNELS 3 Zrotation Yrotation Xrotation
									End Site
									{
										OFFSET -0.52232 -0.00000 0.52232
									}
								}
							}
						}
					}
				}
			}
		}
	}
}
MOTION
Frames: 6
Frame Time: .0083333
14.376 18.6263 0.5085 0 0 0 0 0 0 -21 0 0 0 0 0 0 0 0 0 0 0 0 0 0 21 0 0 0 0 0 0 0 0 0 0 0 0 0 0 0 0 0 0 0 0 0 0 -16 0 0 21 0 0 11 0 0 0 -8 0 0 0 0 0 0 0 0 0 0 0 0 0 0 0 0 0 0 0 0 8 0 0 0 0 0 0 0 0 0 0 0 0 0 0 0 0 0
14.3760 18.6263 0.5085 4.0807 -37.4538 0.6379 0.0000 0.0000 0.0000 -15.3394 6.0968 -19.5649 3.1753 10.9736 32.1908 0.3222 -3.0056 -10.1090 0.0037 -0.3911 -1.0746 0.0000 0.0000 0.0000 15.9037 9.5709 -10.6977 -1.7467 -8.3172 23.6817 -0.0727 -13.0404 -19.4060 -0.0586 -1.5615 4.2953 0.3731 1.0329 2.8804 -1.9858 1.3608 0.7174 -2.2932 0.6768 -0.8217 -4.7285 -1.6824 -14.5996 0.3611 -1.3809 25.3261 0.7362 -1.0999 10.5823 0.0000 -0.0000 0.0000 -90.3898 3.0200 -4.5838 19.2671 -29.7492 -5.1627 -0.0000 -0.0000 20.7939 15.3177 26.6358 7.0006 -7.1250 0.0000 -0.0000 -16.1397 56.7182 -4.7207 0.0000 -0.0000 0.0000 89.2842 -4.1940 11.6487 -14.9281 24.0459 -3.1966 0.0000 0.0000 23.6067 -22.0754 23.3768 -9.1414 7.1250 -0.0000 -0.0000 4.3725 -5.0350 3.9837
14.3888 18.6255 0.5110 4.8246 -37.0719 0.2227 0.0000 0.0000 0.0000 -15.8043 6.1954 -19.8850 3.2280 11.0553 32.4665 0.2707 -4.3179 -9.2889 0.0439 -1.3528 -3.7200 0.0000 0.0000 0.0000 15.1281 9.4497 -11.0458 -1.8257 -8.4932 24.2225 -0.2095 -12.5702 -20.3252 -0.1343 -2.3622 6.5079 -0.3464 1.0123 2.9040 -2.0000 1.3109 0.7355 -1.9024 0.6523 -0.8345 -4.5140 -1.2700 -14.0568 -0.0405 -0.7768 24.9982 0.6398 -0.8453 10.3370 0.0000 -0.0000 0.0000 -90.5948 3.0223 -4.1083 19.5237 -30.0642 -5.2906 -0.0000 -0.0000 20.4368 14.7252 26.8242 6.7635 -7.1250 0.0000 -0.0000 -16.8592 56.7770 -4.9635 0.0000 -0.0000 0.0000 88.9084 -4.3416 11.7673 -14.8820 23.9814 -3.1778 0.0000 0.0000 23.5168 -22.1618 22.7999 -8.9696 7.1250 -0.0000 -0.0000 4.2608 -5.6240 3.8336
14.4123 18.6128 0.5088 5.3884 -36.6784 0.2499 0.0000 0.0000 0.0000 -16.0863 5.8855 -20.5833 3.3198 11.1955 32.9421 0.2130 -5.6170 -8.5336 0.1130 -2.1676 -5.9691 0.0000 0.0000 0.0000 14.4386 9.3401 -11.6949 -1.8682 -8.5859 24.5083 -0.2886 -12.3040 -20.8381 -0.2025 -2.8975 7.9934 -0.8390 1.0136 2.7687 -1.9847 1.2982 0.5984 -1.6090 0.6463 -0.9109 -4.5787 -0.9352 -13.7087 -0.1595 -0.2770 24.9948 0.6742 -0.6361 10.2566 0.0000 -0.0000 0.0000 -90.8158 3.1326 -3.5194 19.9464 -30.5777 -5.5041 -0.0000 -0.0000 20.0502 14.2070 27.4309 6.6523 -7.1250 0.0000 -0.0000 -17.7615 57.2499 -5.4456 0.0000 -0.0000 0.0000 88.5206 -4.5779 11.7584 -14.8515 23.9388 -3.1654 0.0000 0.0000 23.5337 -22.5649 22.8488 -9.1660 7.1250 -0.0000 -0.0000 4.0143 -5.5039 3.6199
14.4414 18.6067 0.5092 5.3746 -36.2711 0.5377 0.0000 0.0000 0.0000 -15.8121 5.5623 -21.1730 3.4101 11.3310 33.4046 0.1400 -7.1243 -7.7769 0.1604 -2.5802 -7.1121 0.0000 0.0000 0.0000 14.2988 9.1110 -12.2209 -1.8922 -8.6379 24.6690 -0.2543 -12.5203 -20.7393 -0.1592 -2.5708 7.0860 -0.7593 0.9366 2.8351 -1.8936 1.1950 0.4219 -1.5600 0.5945 -1.1316 -4.5207 -0.4900 -13.5794 -0.2542 0.3556 25.2912 0.7120 -0.3582 10.3240 -0.0000 -0.0000 0.0000 -91.0199 3.3187 -3.3491 20.3772 -31.0941 -5.7249 -0.0000 -0.0000 20.0877 15.3768 27.0075 7.1185 -7.1250 0.0000 -0.0000 -16.2971 57.0898 -4.9160 -0.0000 -0.0000 0.0000 88.2755 -4.9754 11.8782 -14.9388 24.0608 -3.2009 0.0000 0.0000 23.5346 -22.7777 23.9075 -9.6575 7.1250 -0.0000 -0.0000 3.9940 -4.3555 3.6883
14.4622 18.6071 0.5209 5.1932 -35.9305 0.6382 0.0000 0.0000 0.0000 -15.3444 5.6163 -21.4756 3.5062 11.4726 33.8907 0.0470 -8.9232 -7.0979 0.1320 -2.3419 -6.4516 0.0000 0.0000 0.0000 14.3535 8.4235 -12.4730 -1.9023 -8.6595 24.7357 -0.2396 -12.3892 -20.4255 -0.1019 -2.0586 5.6677 -0.6324 0.8483 3.0621 -1.7447 1.0785 0.3418 -1.4788 0.5359 -1.3438 -4.1387 0.0112 -13.6287 -0.6457 1.0806 25.7742 0.6018 -0.0477 10.4978 -0.0000 -0.0000 0.0000 -91.0980 3.4741 -3.1353 20.5866 -31.3426 -5.8334 -0.0000 -0.0000 20.0866 16.0562 26.2240 7.2478 -7.1250 0.0000 -0.0000 -15.1452 56.4708 -4.3288 -0.0000 -0.0000 0.0000 87.9972 -5.4175 12.2107 -15.1028 24.2891 -3.2681 0.0000 0.0000 23.2544 -22.5020 24.5910 -9.7809 7.1250 -0.0000 -0.0000 4.2385 -3.6901 3.9680
